<?xml version="1.0" encoding="UTF-8" standalone="no"?>
<svg
   width="128"
   height="128"
   viewBox="0 0 33.866668 33.866668"
   version="1.1"
   id="svg8"
   inkscape:version="1.1 (c4e8f9ed74, 2021-05-24)"
   sodipodi:docname="about.svg"
   xmlns:inkscape="http://www.inkscape.org/namespaces/inkscape"
   xmlns:sodipodi="http://sodipodi.sourceforge.net/DTD/sodipodi-0.dtd"
   xmlns="http://www.w3.org/2000/svg"
   xmlns:svg="http://www.w3.org/2000/svg"
   xmlns:rdf="http://www.w3.org/1999/02/22-rdf-syntax-ns#"
   xmlns:cc="http://creativecommons.org/ns#"
   xmlns:dc="http://purl.org/dc/elements/1.1/">
  <defs
     id="defs2" />
  <sodipodi:namedview
     id="base"
     pagecolor="#322f39"
     bordercolor="#808080"
     borderopacity="1"
     inkscape:pageopacity="0"
     inkscape:pageshadow="2"
     inkscape:zoom="3.959798"
     inkscape:cx="69.447987"
     inkscape:cy="91.418805"
     inkscape:document-units="mm"
     inkscape:current-layer="layer1"
     inkscape:document-rotation="0"
     showgrid="false"
     inkscape:pagecheckerboard="false"
     borderlayer="false"
     inkscape:showpageshadow="false"
     units="px"
     inkscape:window-width="1916"
     inkscape:window-height="1076"
     inkscape:window-x="0"
     inkscape:window-y="0"
     inkscape:window-maximized="1" />
  <metadata
     id="metadata5">
    <rdf:RDF>
      <cc:Work
         rdf:about="">
        <dc:format>image/svg+xml</dc:format>
        <dc:type
           rdf:resource="http://purl.org/dc/dcmitype/StillImage" />
      </cc:Work>
    </rdf:RDF>
  </metadata>
  <g
     inkscape:label="Layer 1"
     inkscape:groupmode="layer"
     id="layer1"
     transform="translate(-13.205012,22.947101)">
    <g
       aria-label="?"
       id="text10583"
       style="font-size:45.6432px;line-height:1.25;font-family:'Major Mono Display';-inkscape-font-specification:'Major Mono Display';fill:#ffdfff;stroke:#000000;stroke-width:0.900449"
       transform="matrix(1,0,0,0.99900267,4.1140263,-0.02266474)">
      <path
         d="m 38.393626,-10.127793 q 0,3.2406668 -1.551869,6.024902 -1.551869,2.7842352 -4.199174,4.5186768 -2.647306,1.6887984 -5.84233,1.8713712 1.460583,0.2738592 2.41909,1.4605824 0.958507,1.14108 0.958507,2.6473056 0,1.6887984 -1.232366,2.9211648 -1.186724,1.1867232 -2.921165,1.1867232 -1.734442,0 -2.966808,-1.1867232 -1.186723,-1.2323664 -1.186723,-2.9211648 0,-1.7344416 1.186723,-2.9211648 1.232366,-1.2323664 2.966808,-1.2323664 v -8.3070624 q 1.688798,0 2.875521,-1.1867232 1.232367,-1.1867232 1.232367,-2.8755212 0,-1.688799 -1.232367,-2.875522 -1.186723,-1.232366 -2.875521,-1.232366 -1.688799,0 -2.921165,1.232366 -1.186723,1.186723 -1.186723,2.875522 h -8.261419 q 0,-3.377597 1.643155,-6.207476 1.688798,-2.829878 4.518677,-4.473033 2.829878,-1.688799 6.207475,-1.688799 3.377597,0 6.207475,1.688799 2.829878,1.643155 4.473034,4.473033 1.688798,2.829879 1.688798,6.207476 z M 28.489052,6.395045 q 0,-1.0497936 -0.730292,-1.7344416 -0.684648,-0.7302912 -1.734441,-0.7302912 -1.004151,0 -1.734442,0.7302912 -0.730291,0.684648 -0.730291,1.7344416 0,1.0041504 0.730291,1.7344416 0.730291,0.684648 1.734442,0.684648 1.00415,0 1.734441,-0.684648 0.730292,-0.7302912 0.730292,-1.7344416 z"
         id="path909"
         style="stroke-width:0.900449" />
    </g>
  </g>
</svg>
