<?xml version="1.0" encoding="UTF-8" standalone="no"?>
<!-- Created with Inkscape (http://www.inkscape.org/) -->

<svg
   width="22.157812mm"
   height="22.157812mm"
   viewBox="0 0 22.157812 22.157812"
   version="1.1"
   id="svg5"
   inkscape:version="1.2.2 (b0a8486541, 2022-12-01)"
   sodipodi:docname="croppedsun.svg"
   inkscape:export-filename="../../3d-projects/textures/sun3.png"
   inkscape:export-xdpi="812.79999"
   inkscape:export-ydpi="812.79999"
   xmlns:inkscape="http://www.inkscape.org/namespaces/inkscape"
   xmlns:sodipodi="http://sodipodi.sourceforge.net/DTD/sodipodi-0.dtd"
   xmlns:xlink="http://www.w3.org/1999/xlink"
   xmlns="http://www.w3.org/2000/svg"
   xmlns:svg="http://www.w3.org/2000/svg">
  <sodipodi:namedview
     id="namedview7"
     pagecolor="#110f17"
     bordercolor="#666666"
     borderopacity="1.0"
     inkscape:pageshadow="2"
     inkscape:pageopacity="0"
     inkscape:pagecheckerboard="0"
     inkscape:document-units="mm"
     showgrid="false"
     width="128mm"
     inkscape:showpageshadow="false"
     inkscape:zoom="4.6604636"
     inkscape:cx="41.841331"
     inkscape:cy="36.477058"
     inkscape:window-width="1916"
     inkscape:window-height="1076"
     inkscape:window-x="0"
     inkscape:window-y="0"
     inkscape:window-maximized="1"
     inkscape:current-layer="layer1"
     inkscape:object-nodes="false"
     inkscape:deskcolor="#110f17" />
  <defs
     id="defs2">
    <linearGradient
       inkscape:collect="always"
       id="linearGradient20917">
      <stop
         style="stop-color:#cb561f;stop-opacity:1;"
         offset="0"
         id="stop20913" />
      <stop
         style="stop-color:#cb1f5d;stop-opacity:1"
         offset="1"
         id="stop20915" />
    </linearGradient>
    <linearGradient
       inkscape:collect="always"
       xlink:href="#linearGradient20917"
       id="linearGradient20919"
       x1="64.128441"
       y1="53.049538"
       x2="64.128441"
       y2="75.058838"
       gradientUnits="userSpaceOnUse" />
  </defs>
  <g
     inkscape:label="Layer 1"
     inkscape:groupmode="layer"
     id="layer1"
     transform="translate(-52.921094,-52.921094)">
    <path
       id="path14131"
       style="fill:url(#linearGradient20919);fill-opacity:1;stroke-width:2.64583"
       d="M 64.000004 52.921094 A 11.078906 11.078906 0 0 0 61.382593 53.235803 L 66.618966 53.235803 A 11.078906 11.078906 0 0 0 64.000004 52.921094 z M 60.173365 53.612008 A 11.078906 11.078906 0 0 0 59.169808 54.045573 L 68.848287 54.045573 A 11.078906 11.078906 0 0 0 67.849899 53.612008 L 60.173365 53.612008 z M 58.455123 54.421778 A 11.078906 11.078906 0 0 0 57.77041 54.855343 L 70.243034 54.855343 A 11.078906 11.078906 0 0 0 69.559872 54.421778 L 58.455123 54.421778 z M 57.25933 55.231547 A 11.078906 11.078906 0 0 0 56.736365 55.665113 L 71.273462 55.665113 A 11.078906 11.078906 0 0 0 70.752047 55.231547 L 57.25933 55.231547 z M 56.328638 56.041834 A 11.078906 11.078906 0 0 0 55.911609 56.475399 L 72.096668 56.475399 A 11.078906 11.078906 0 0 0 71.680672 56.041834 L 56.328638 56.041834 z M 55.574162 56.851603 A 11.078906 11.078906 0 0 0 55.232581 57.285169 L 72.774663 57.285169 A 11.078906 11.078906 0 0 0 72.433598 56.851603 L 55.574162 56.851603 z M 54.951461 57.661373 A 11.078906 11.078906 0 0 0 54.669308 58.094938 L 73.336385 58.094938 A 11.078906 11.078906 0 0 0 73.054749 57.661373 L 54.951461 57.661373 z M 54.434697 58.471143 A 11.078906 11.078906 0 0 0 54.20267 58.904708 L 73.801473 58.904708 A 11.078906 11.078906 0 0 0 73.569963 58.471143 L 54.434697 58.471143 z M 54.008883 59.280913 A 11.078906 11.078906 0 0 0 53.820264 59.714995 L 74.183362 59.714995 A 11.078906 11.078906 0 0 0 73.99526 59.280913 L 54.008883 59.280913 z M 53.662134 60.091199 A 11.078906 11.078906 0 0 0 53.512789 60.524764 L 74.489803 60.524764 A 11.078906 11.078906 0 0 0 74.340975 60.091199 L 53.662134 60.091199 z M 53.387215 60.900969 A 11.078906 11.078906 0 0 0 53.273527 61.334534 L 74.728032 61.334534 A 11.078906 11.078906 0 0 0 74.61486 60.900969 L 53.387215 60.900969 z M 53.178959 61.710738 A 11.078906 11.078906 0 0 0 53.099378 62.144304 L 74.902181 62.144304 A 11.078906 11.078906 0 0 0 74.8226 61.710738 L 53.178959 61.710738 z M 53.033749 62.520508 A 11.078906 11.078906 0 0 0 52.986206 62.954073 L 75.014319 62.954073 A 11.078906 11.078906 0 0 0 74.966777 62.520508 L 53.033749 62.520508 z M 52.949516 63.330795 A 11.078906 11.078906 0 0 0 52.930913 63.76436 L 75.069096 63.76436 A 11.078906 11.078906 0 0 0 75.050493 63.330795 L 52.949516 63.330795 z M 52.926778 64.140564 A 11.078906 11.078906 0 0 0 52.950033 64.574129 L 75.053593 64.574129 A 11.078906 11.078906 0 0 0 75.076848 64.140564 L 52.926778 64.140564 z M 52.970187 64.950334 A 11.078906 11.078906 0 0 0 53.024964 65.383899 L 74.978662 65.383899 A 11.078906 11.078906 0 0 0 75.033439 64.950334 L 52.970187 64.950334 z M 53.071989 65.760104 A 11.078906 11.078906 0 0 0 53.159322 66.193669 L 74.844304 66.193669 A 11.078906 11.078906 0 0 0 74.931637 65.760104 L 53.071989 65.760104 z M 53.235287 66.569873 A 11.078906 11.078906 0 0 0 53.357243 67.003955 L 74.646383 67.003955 A 11.078906 11.078906 0 0 0 74.768339 66.569873 L 53.235287 66.569873 z M 53.462663 67.38016 A 11.078906 11.078906 0 0 0 53.620793 67.813725 L 74.382833 67.813725 A 11.078906 11.078906 0 0 0 74.540963 67.38016 L 53.462663 67.38016 z M 53.757735 68.189929 A 11.078906 11.078906 0 0 0 53.955139 68.623495 L 74.048487 68.623495 A 11.078906 11.078906 0 0 0 74.245891 68.189929 L 53.757735 68.189929 z M 54.128255 68.999699 A 11.078906 11.078906 0 0 0 54.369068 69.433264 L 73.634042 69.433264 A 11.078906 11.078906 0 0 0 73.875371 68.999699 L 54.128255 68.999699 z M 54.583525 69.809469 A 11.078906 11.078906 0 0 0 54.874463 70.243034 L 73.128646 70.243034 A 11.078906 11.078906 0 0 0 73.419584 69.809469 L 54.583525 69.809469 z M 55.138013 70.619755 A 11.078906 11.078906 0 0 0 55.488379 71.053321 L 72.515247 71.053321 A 11.078906 11.078906 0 0 0 72.865096 70.619755 L 55.138013 70.619755 z M 55.811357 71.429525 A 11.078906 11.078906 0 0 0 56.23407 71.86309 L 71.769556 71.86309 A 11.078906 11.078906 0 0 0 72.192269 71.429525 L 55.811357 71.429525 z M 56.634562 72.239295 A 11.078906 11.078906 0 0 0 57.158045 72.67286 L 70.845581 72.67286 A 11.078906 11.078906 0 0 0 71.369064 72.239295 L 56.634562 72.239295 z M 57.664474 73.049064 A 11.078906 11.078906 0 0 0 58.3311 73.48263 L 69.672526 73.48263 A 11.078906 11.078906 0 0 0 70.338636 73.049064 L 57.664474 73.049064 z M 59.011162 73.859351 A 11.078906 11.078906 0 0 0 59.982162 74.292916 L 68.020948 74.292916 A 11.078906 11.078906 0 0 0 68.991948 73.859351 L 59.011162 73.859351 z M 61.109225 74.669121 A 11.078906 11.078906 0 0 0 64.000004 75.078915 A 11.078906 11.078906 0 0 0 66.894401 74.669121 L 61.109225 74.669121 z " />
  </g>
</svg>
