<svg width="127.125" height="121.74" xmlns="http://www.w3.org/2000/svg"><defs><clipPath clipPathUnits="userSpaceOnUse" id="prefix__b"><path style="-inkscape-stroke:none" class="prefix__powerclip" d="M41.493 46.946h34.933v43.762H41.493zm29.394 6.933a2.835 2.835 0 00-2.137.385 2.835 2.835 0 00-.854 3.916l17.221 26.83a2.835 2.835 0 003.918.855 2.835 2.835 0 00.854-3.918l-17.221-26.83a2.835 2.835 0 00-1.781-1.238z" color="#000" fill="#e9203e" stroke-linecap="round"/></clipPath><clipPath clipPathUnits="userSpaceOnUse" id="prefix__a"><path style="-inkscape-stroke:none" class="prefix__powerclip" d="M77.255 33.413h40.957V72.66H77.255zM90.41 44.48a3.024 3.024 0 00-2.285.363A3.024 3.024 0 0087.127 49l16.84 27.455a3.024 3.024 0 004.158.996 3.024 3.024 0 00.996-4.158L92.283 45.84a3.024 3.024 0 00-1.873-1.361z" color="#000" fill="#e9203e" stroke-linecap="round"/></clipPath><clipPath clipPathUnits="userSpaceOnUse" id="prefix__c"><path style="-inkscape-stroke:none" class="prefix__powerclip" d="M73.456 65.403h31.521v31.522H73.456zm-3.307-11.586a2.835 2.835 0 00-1.399.447 2.835 2.835 0 00-.853 3.916l17.22 26.83a2.835 2.835 0 003.918.856 2.835 2.835 0 00.854-3.918l-17.22-26.83a2.835 2.835 0 00-1.782-1.238 2.835 2.835 0 00-.738-.063zm24.32 28.695a2.835 2.835 0 00-2.834 2.834 2.835 2.835 0 002.834 2.836h16.406a2.835 2.835 0 002.834-2.836 2.835 2.835 0 00-2.834-2.834z" color="#000" fill="#e9203e" stroke-linecap="round"/></clipPath></defs><g fill="none" stroke="#e9203e" stroke-width="3.999"><path d="M125.037 95.381l-22.75-46.283-19.709-37.161-9.701-9.199-7.843-.618-17.679 4.776L23.05 18.742 3.896 36.32 2.06 46.736l6.897 10.135 16.971 9.708 31.067 11.308 2.652 7.307-4.238 17.028 5.038 3.251 7.217-2.198.083-7.777-1.95-10.151 4.237-.354 5.038 7.945.606 9.662-2.12 11.379 4.081 5.542 6.015-.359 4.766-5.043-4.215-17.753.465-6.005 3.335-.351 25.962 12.1 7.15-.53z"/><path d="M82.396 11.171L56.328 18.43 29.186 32.04 21.32 40.6l-.267 6.686 7.54 5.911"/></g><g fill="none" stroke="#e9203e" stroke-width="3.999" stroke-linecap="square"><path d="M71.895 26.269l16.838 27.453M52.471 35.497l17.222 26.831M93.064 64.195H76.66"/></g></svg>