<?xml version="1.0" encoding="UTF-8" standalone="no"?>
<svg
   inkscape:export-ydpi="2167.4666"
   inkscape:export-xdpi="2167.4666"
   inkscape:export-filename="/home/pizzart/Documents/peenart.png"
   version="1.1"
   id="svg64"
   width="33.635067mm"
   height="32.210445mm"
   viewBox="0 0 127.12466 121.74026"
   sodipodi:docname="pizza-neon.svg"
   inkscape:version="1.2.1 (9c6d41e410, 2022-07-14, custom)"
   xmlns:inkscape="http://www.inkscape.org/namespaces/inkscape"
   xmlns:sodipodi="http://sodipodi.sourceforge.net/DTD/sodipodi-0.dtd"
   xmlns="http://www.w3.org/2000/svg"
   xmlns:svg="http://www.w3.org/2000/svg"
   xmlns:rdf="http://www.w3.org/1999/02/22-rdf-syntax-ns#"
   xmlns:cc="http://creativecommons.org/ns#"
   xmlns:dc="http://purl.org/dc/elements/1.1/">
  <metadata
     id="metadata70">
    <rdf:RDF>
      <cc:Work
         rdf:about="">
        <dc:format>image/svg+xml</dc:format>
        <dc:type
           rdf:resource="http://purl.org/dc/dcmitype/StillImage" />
      </cc:Work>
    </rdf:RDF>
  </metadata>
  <defs
     id="defs68">
    <inkscape:path-effect
       effect="powerclip"
       id="path-effect6897"
       is_visible="true"
       lpeversion="1"
       inverse="true"
       flatten="false"
       hide_clip="false"
       message="Use fill-rule evenodd on &lt;b&gt;fill and stroke&lt;/b&gt; dialog if no flatten result after convert clip to paths." />
    <inkscape:path-effect
       effect="powerclip"
       id="path-effect3944"
       is_visible="true"
       lpeversion="1"
       inverse="true"
       flatten="false"
       hide_clip="false"
       message="Use fill-rule evenodd on &lt;b&gt;fill and stroke&lt;/b&gt; dialog if no flatten result after convert clip to paths." />
    <inkscape:path-effect
       effect="powerclip"
       id="path-effect3930"
       is_visible="true"
       lpeversion="1"
       inverse="true"
       flatten="false"
       hide_clip="false"
       message="Use fill-rule evenodd on &lt;b&gt;fill and stroke&lt;/b&gt; dialog if no flatten result after convert clip to paths." />
    <inkscape:path-effect
       effect="powerclip"
       id="path-effect3196"
       is_visible="true"
       lpeversion="1"
       inverse="true"
       flatten="false"
       hide_clip="false"
       message="Use fill-rule evenodd on &lt;b&gt;fill and stroke&lt;/b&gt; dialog if no flatten result after convert clip to paths." />
    <filter
       id="filter9334"
       inkscape:label="Drop Shadow"
       style="color-interpolation-filters:sRGB"
       x="-0.02446009"
       y="-0.025586164"
       width="1.0649295"
       height="1.0678667">
      <feFlood
         id="feFlood9324"
         result="flood"
         flood-color="rgb(0,0,0)"
         flood-opacity="0.498039" />
      <feComposite
         id="feComposite9326"
         result="composite1"
         operator="in"
         in2="SourceGraphic"
         in="flood" />
      <feGaussianBlur
         id="feGaussianBlur9328"
         result="blur"
         stdDeviation="1"
         in="composite1" />
      <feOffset
         id="feOffset9330"
         result="offset"
         dy="2"
         dx="2" />
      <feComposite
         id="feComposite9332"
         result="composite2"
         operator="over"
         in2="offset"
         in="SourceGraphic" />
    </filter>
    <filter
       id="filter9334-6"
       inkscape:label="Drop Shadow"
       style="color-interpolation-filters:sRGB"
       x="-0.027577596"
       y="-0.024627432"
       width="1.0718763"
       height="1.0655901">
      <feFlood
         id="feFlood9324-0"
         result="flood"
         flood-color="rgb(0,0,0)"
         flood-opacity="0.498039" />
      <feComposite
         id="feComposite9326-6"
         result="composite1"
         operator="in"
         in2="SourceGraphic"
         in="flood" />
      <feGaussianBlur
         id="feGaussianBlur9328-2"
         result="blur"
         stdDeviation="1"
         in="composite1" />
      <feOffset
         id="feOffset9330-6"
         result="offset"
         dy="2"
         dx="2" />
      <feComposite
         id="feComposite9332-1"
         result="composite2"
         operator="over"
         in2="offset"
         in="SourceGraphic" />
    </filter>
    <filter
       style="color-interpolation-filters:sRGB"
       inkscape:label="Drop Shadow"
       id="filter950"
       x="-0.3106156"
       y="-0.3266004"
       width="1.7450162"
       height="1.7833567">
      <feFlood
         flood-opacity="0.498039"
         flood-color="rgb(0,0,0)"
         result="flood"
         id="feFlood940" />
      <feComposite
         in="flood"
         in2="SourceGraphic"
         operator="in"
         result="composite1"
         id="feComposite942" />
      <feGaussianBlur
         in="composite1"
         stdDeviation="3"
         result="blur"
         id="feGaussianBlur944" />
      <feOffset
         dx="3"
         dy="3"
         result="offset"
         id="feOffset946" />
      <feComposite
         in="SourceGraphic"
         in2="offset"
         operator="over"
         result="composite2"
         id="feComposite948" />
    </filter>
    <filter
       id="filter9334-5"
       inkscape:label="Drop Shadow"
       style="color-interpolation-filters:sRGB"
       x="-0.027022308"
       y="-0.02419699"
       width="1.0700042"
       height="1.0650856">
      <feFlood
         id="feFlood9324-04"
         result="flood"
         flood-color="rgb(0,0,0)"
         flood-opacity="0.498039" />
      <feComposite
         id="feComposite9326-8"
         result="composite1"
         operator="in"
         in2="SourceGraphic"
         in="flood" />
      <feGaussianBlur
         id="feGaussianBlur9328-7"
         result="blur"
         stdDeviation="1"
         in="composite1" />
      <feOffset
         id="feOffset9330-17"
         result="offset"
         dy="2"
         dx="2" />
      <feComposite
         id="feComposite9332-2"
         result="composite2"
         operator="over"
         in2="offset"
         in="SourceGraphic" />
    </filter>
    <filter
       style="color-interpolation-filters:sRGB"
       inkscape:label="Drop Shadow"
       id="filter950-2"
       height="1.9656966"
       width="1.7481883"
       y="-0.40262282"
       x="-0.31193799">
      <feFlood
         flood-opacity="0.498039"
         flood-color="rgb(0,0,0)"
         result="flood"
         id="feFlood940-6" />
      <feComposite
         in="flood"
         in2="SourceGraphic"
         operator="in"
         result="composite1"
         id="feComposite942-1" />
      <feGaussianBlur
         in="composite1"
         stdDeviation="3"
         result="blur"
         id="feGaussianBlur944-0" />
      <feOffset
         dx="3"
         dy="3"
         result="offset"
         id="feOffset946-6" />
      <feComposite
         in="SourceGraphic"
         in2="offset"
         operator="over"
         result="composite2"
         id="feComposite948-1" />
    </filter>
    <filter
       id="filter9334-1"
       inkscape:label="Drop Shadow"
       style="color-interpolation-filters:sRGB"
       x="-0.024460092"
       width="1.0649296"
       y="-0.025586165"
       height="1.0678667">
      <feFlood
         id="feFlood9324-5"
         result="flood"
         flood-color="rgb(0,0,0)"
         flood-opacity="0.498039" />
      <feComposite
         id="feComposite9326-9"
         result="composite1"
         operator="in"
         in2="SourceGraphic"
         in="flood" />
      <feGaussianBlur
         id="feGaussianBlur9328-8"
         result="blur"
         stdDeviation="1"
         in="composite1" />
      <feOffset
         id="feOffset9330-4"
         result="offset"
         dy="2"
         dx="2" />
      <feComposite
         id="feComposite9332-8"
         result="composite2"
         operator="over"
         in2="offset"
         in="SourceGraphic" />
    </filter>
    <filter
       id="filter9334-3"
       inkscape:label="Drop Shadow"
       style="color-interpolation-filters:sRGB"
       x="-0.02446009"
       y="-0.025586165"
       width="1.0649295"
       height="1.0678667">
      <feFlood
         id="feFlood9324-1"
         result="flood"
         flood-color="rgb(0,0,0)"
         flood-opacity="0.498039" />
      <feComposite
         id="feComposite9326-89"
         result="composite1"
         operator="in"
         in2="SourceGraphic"
         in="flood" />
      <feGaussianBlur
         id="feGaussianBlur9328-64"
         result="blur"
         stdDeviation="1"
         in="composite1" />
      <feOffset
         id="feOffset9330-3"
         result="offset"
         dy="2"
         dx="2" />
      <feComposite
         id="feComposite9332-3"
         result="composite2"
         operator="over"
         in2="offset"
         in="SourceGraphic" />
    </filter>
    <clipPath
       clipPathUnits="userSpaceOnUse"
       id="clipPath3192">
      <path
         style="color:#000000;display:none;fill:#e9203e;stroke-linecap:round;-inkscape-stroke:none"
         d="M 70.886719,53.878906 A 2.8346455,2.8346455 0 0 0 68.75,54.263672 2.8346455,2.8346455 0 0 0 67.896484,58.179687 l 17.220703,26.830079 a 2.8346455,2.8346455 0 0 0 3.917969,0.855468 2.8346455,2.8346455 0 0 0 0.853516,-3.917968 L 72.667969,55.117187 a 2.8346455,2.8346455 0 0 0 -1.78125,-1.238281 z"
         id="path3194" />
      <path
         id="lpe_path-effect3196"
         style="color:#000000;fill:#e9203e;stroke-linecap:round;-inkscape-stroke:none"
         class="powerclip"
         d="M 73.455874,65.403319 H 104.9773 V 96.924757 H 73.455874 Z M 70.148606,53.817151 a 2.8346455,2.8346455 0 0 0 -1.398438,0.447266 2.8346455,2.8346455 0 0 0 -0.853515,3.916016 L 85.117355,85.01051 a 2.8346455,2.8346455 0 0 0 3.917969,0.855468 2.8346455,2.8346455 0 0 0 0.853515,-3.917968 L 72.668137,55.117933 a 2.8346455,2.8346455 0 0 0 -1.78125,-1.238282 2.8346455,2.8346455 0 0 0 -0.738281,-0.0625 z m 24.320311,28.695312 a 2.8346455,2.8346455 0 0 0 -2.833984,2.833984 2.8346455,2.8346455 0 0 0 2.833984,2.835938 h 16.406253 a 2.8346455,2.8346455 0 0 0 2.83398,-2.835938 2.8346455,2.8346455 0 0 0 -2.83398,-2.833984 z" />
    </clipPath>
    <clipPath
       clipPathUnits="userSpaceOnUse"
       id="clipPath3926">
      <path
         style="color:#000000;display:none;fill:#e9203e;stroke-linecap:round;-inkscape-stroke:none"
         d="M 70.886719,53.878906 A 2.8346455,2.8346455 0 0 0 68.75,54.263672 2.8346455,2.8346455 0 0 0 67.896484,58.179687 l 17.220703,26.830079 a 2.8346455,2.8346455 0 0 0 3.917969,0.855468 2.8346455,2.8346455 0 0 0 0.853516,-3.917968 L 72.667969,55.117187 a 2.8346455,2.8346455 0 0 0 -1.78125,-1.238281 z"
         id="path3928" />
      <path
         id="lpe_path-effect3930"
         style="color:#000000;fill:#e9203e;stroke-linecap:round;-inkscape-stroke:none"
         class="powerclip"
         d="M 41.493084,46.94649 H 76.425517 V 90.708324 H 41.493084 Z m 29.393635,6.932416 A 2.8346455,2.8346455 0 0 0 68.75,54.263672 2.8346455,2.8346455 0 0 0 67.896484,58.179687 l 17.220703,26.830079 a 2.8346455,2.8346455 0 0 0 3.917969,0.855468 2.8346455,2.8346455 0 0 0 0.853516,-3.917968 L 72.667969,55.117187 a 2.8346455,2.8346455 0 0 0 -1.78125,-1.238281 z" />
    </clipPath>
    <clipPath
       clipPathUnits="userSpaceOnUse"
       id="clipPath3940">
      <path
         style="color:#000000;display:none;fill:#e9203e;stroke-linecap:round;-inkscape-stroke:none"
         d="M 90.410156,44.478516 A 3.023622,3.023622 0 0 0 88.125,44.841797 3.023622,3.023622 0 0 0 87.126953,49 L 103.9668,76.455078 a 3.023622,3.023622 0 0 0 4.1582,0.996094 3.023622,3.023622 0 0 0 0.99609,-4.158203 L 92.283203,45.839844 a 3.023622,3.023622 0 0 0 -1.873047,-1.361328 z"
         id="path3942" />
      <path
         id="lpe_path-effect3944"
         style="color:#000000;fill:#e9203e;stroke-linecap:round;-inkscape-stroke:none"
         class="powerclip"
         d="M 77.254506,33.413288 H 118.21242 V 72.660197 H 77.254506 Z m 13.15565,11.065228 A 3.023622,3.023622 0 0 0 88.125,44.841797 3.023622,3.023622 0 0 0 87.126953,49 L 103.9668,76.455078 a 3.023622,3.023622 0 0 0 4.1582,0.996094 3.023622,3.023622 0 0 0 0.99609,-4.158203 L 92.283203,45.839844 a 3.023622,3.023622 0 0 0 -1.873047,-1.361328 z" />
    </clipPath>
    <clipPath
       clipPathUnits="userSpaceOnUse"
       id="clipPath6893">
      <path
         id="path6895"
         style="color:#000000;display:none;fill:#e9203e;stroke-linecap:round;-inkscape-stroke:none"
         d="m 70.148606,53.817151 a 2.8346455,2.8346455 0 0 0 -1.398438,0.447266 2.8346455,2.8346455 0 0 0 -0.853515,3.916016 L 85.117355,85.01051 a 2.8346455,2.8346455 0 0 0 3.917969,0.855468 2.8346455,2.8346455 0 0 0 0.853515,-3.917968 L 72.668137,55.117933 a 2.8346455,2.8346455 0 0 0 -1.78125,-1.238282 2.8346455,2.8346455 0 0 0 -0.738281,-0.0625 z m 24.320311,28.695312 a 2.8346455,2.8346455 0 0 0 -2.833984,2.833984 2.8346455,2.8346455 0 0 0 2.833984,2.835938 h 16.406253 a 2.8346455,2.8346455 0 0 0 2.83398,-2.835938 2.8346455,2.8346455 0 0 0 -2.83398,-2.833984 z" />
      <path
         id="lpe_path-effect6897"
         style="color:#000000;fill:#e9203e;stroke-linecap:round;-inkscape-stroke:none"
         class="powerclip"
         d="M 73.455874,65.403319 H 104.9773 V 96.924757 H 73.455874 Z M 70.148606,53.817151 a 2.8346455,2.8346455 0 0 0 -1.398438,0.447266 2.8346455,2.8346455 0 0 0 -0.853515,3.916016 L 85.117355,85.01051 a 2.8346455,2.8346455 0 0 0 3.917969,0.855468 2.8346455,2.8346455 0 0 0 0.853515,-3.917968 L 72.668137,55.117933 a 2.8346455,2.8346455 0 0 0 -1.78125,-1.238282 2.8346455,2.8346455 0 0 0 -0.738281,-0.0625 z m 24.320311,28.695312 a 2.8346455,2.8346455 0 0 0 -2.833984,2.833984 2.8346455,2.8346455 0 0 0 2.833984,2.835938 h 16.406253 a 2.8346455,2.8346455 0 0 0 2.83398,-2.835938 2.8346455,2.8346455 0 0 0 -2.83398,-2.833984 z" />
    </clipPath>
  </defs>
  <sodipodi:namedview
     fit-margin-bottom="0"
     fit-margin-right="0"
     fit-margin-left="0"
     fit-margin-top="0"
     inkscape:showpageshadow="false"
     borderlayer="false"
     showborder="true"
     inkscape:document-rotation="0"
     pagecolor="#6e6e6e"
     bordercolor="#808080"
     borderopacity="1"
     objecttolerance="10"
     gridtolerance="10"
     guidetolerance="10"
     inkscape:pageopacity="0"
     inkscape:pageshadow="2"
     inkscape:window-width="1916"
     inkscape:window-height="1076"
     id="namedview66"
     showgrid="false"
     inkscape:zoom="2.8284271"
     inkscape:cx="68.589358"
     inkscape:cy="42.072853"
     inkscape:window-x="0"
     inkscape:window-y="0"
     inkscape:window-maximized="1"
     inkscape:current-layer="layer5"
     inkscape:pagecheckerboard="false"
     showguides="true"
     inkscape:guide-bbox="true"
     units="mm"
     inkscape:document-units="mm"
     inkscape:deskcolor="#6e6e6e" />
  <g
     transform="translate(-17.810717,-21.151137)"
     inkscape:groupmode="layer"
     id="layer1"
     inkscape:label="Pizza"
     style="display:inline;opacity:1">
    <g
       inkscape:groupmode="layer"
       id="layer5"
       inkscape:label="Chilling"
       style="display:inline">
      <path
         style="fill:none;stroke:#e9203e;stroke-width:3.99874001;stroke-linecap:butt;stroke-linejoin:miter;stroke-opacity:1;stroke-dasharray:none"
         d="M 142.84786,116.53258 120.09797,70.248949 100.38916,33.087826 90.687503,23.889606 82.844828,23.270887 65.166047,28.046836 40.860536,39.893383 21.706219,57.470041 l -1.834981,10.417476 6.897787,10.134595 16.97094,9.708281 31.06681,11.307516 2.651651,7.307101 -4.237818,17.02777 5.038514,3.25175 7.217029,-2.19844 0.08295,-7.77744 -1.950251,-10.1509 4.23716,-0.3536 5.038135,7.94518 0.605502,9.66171 -2.119454,11.37891 4.080635,5.54187 6.014652,-0.35866 4.76626,-5.04313 -4.21509,-17.75277 0.46528,-6.0056 3.33465,-0.35083 25.9622,12.10105 7.14912,-0.53033 z"
         id="path13933" />
      <path
         style="fill:none;stroke:#e9203e;stroke-width:3.99874001;stroke-linecap:butt;stroke-linejoin:miter;stroke-opacity:1;stroke-dasharray:none"
         d="m 100.20647,32.322585 -26.068013,7.257231 -27.142225,13.611665 -7.865667,8.559153 -0.266525,6.686311 7.539876,5.911289"
         id="path14937" />
    </g>
  </g>
  <g
     transform="translate(-17.810717,-21.151137)"
     inkscape:groupmode="layer"
     id="layer4"
     inkscape:label="Topping"
     style="display:inline">
    <g
       inkscape:groupmode="layer"
       id="layer8"
       inkscape:label="Vibing"
       style="display:none">
      <path
         id="path4937"
         style="fill:none;fill-opacity:1;stroke:#e9203e;stroke-width:1.88976;stroke-linejoin:round;stroke-miterlimit:4;stroke-dasharray:none;stroke-opacity:1"
         d="m 93.013839,39.358168 a 9.8158369,9.8158369 0 0 0 -9.814453,9.816405 9.8158369,9.8158369 0 0 0 9.814453,9.816406 9.8158369,9.8158369 0 0 0 5.273438,-1.541015 c 0.147147,2.082563 1.304119,4.122216 3.951173,4.957031 7.77943,2.453439 10.02929,4.308593 10.02929,4.308593 0,0 -1.34053,-2.59308 -2.58789,-10.607421 -0.62727,-4.030232 -4.25849,-5.332478 -7.11523,-4.779297 a 9.8158369,9.8158369 0 0 0 0.26563,-2.154297 9.8158369,9.8158369 0 0 0 -9.816411,-9.816405 z"
         clip-path="url(#clipPath3940)"
         inkscape:path-effect="#path-effect3944"
         inkscape:original-d="m 93.013839,39.358168 a 9.8158369,9.8158369 0 0 0 -9.814453,9.816405 9.8158369,9.8158369 0 0 0 9.814453,9.816406 9.8158369,9.8158369 0 0 0 5.273438,-1.541015 c 0.147147,2.082563 1.304119,4.122216 3.951173,4.957031 7.77943,2.453439 10.02929,4.308593 10.02929,4.308593 0,0 -1.34053,-2.59308 -2.58789,-10.607421 -0.62727,-4.030232 -4.25849,-5.332478 -7.11523,-4.779297 a 9.8158369,9.8158369 0 0 0 0.26563,-2.154297 9.8158369,9.8158369 0 0 0 -9.816411,-9.816405 z" />
      <path
         id="path4937-9"
         style="fill:none;fill-opacity:1;stroke:#e9203e;stroke-width:1.88976;stroke-linecap:butt;stroke-linejoin:round;stroke-miterlimit:4;stroke-dasharray:none;stroke-opacity:1"
         d="m 60.664231,52.89137 a 9.8158369,9.8158369 0 0 0 -9.816406,9.816406 9.8158369,9.8158369 0 0 0 3.669922,7.628906 c -5.202017,-0.428943 -7.080078,-1.208984 -7.080078,-1.208984 0,0 2.515331,2.578669 6.871094,11.591796 2.897138,5.994873 10.28335,4.467483 12.558593,0.939453 1.754511,-2.720575 1.16932,-7.775796 -2.242188,-9.978515 a 9.8158369,9.8158369 0 0 0 5.855469,-8.972656 9.8158369,9.8158369 0 0 0 -9.816406,-9.816406 z"
         clip-path="url(#clipPath3926)"
         inkscape:path-effect="#path-effect3930"
         inkscape:original-d="m 60.664231,52.89137 a 9.8158369,9.8158369 0 0 0 -9.816406,9.816406 9.8158369,9.8158369 0 0 0 3.669922,7.628906 c -5.202017,-0.428943 -7.080078,-1.208984 -7.080078,-1.208984 0,0 2.515331,2.578669 6.871094,11.591796 2.897138,5.994873 10.28335,4.467483 12.558593,0.939453 1.754511,-2.720575 1.16932,-7.775796 -2.242188,-9.978515 a 9.8158369,9.8158369 0 0 0 5.855469,-8.972656 9.8158369,9.8158369 0 0 0 -9.816406,-9.816406 z" />
      <path
         id="path4937-1"
         style="fill:none;fill-opacity:1;stroke:#e9203e;stroke-width:1.88976;stroke-miterlimit:4;stroke-dasharray:none;stroke-opacity:1"
         d="m 81.851024,74.675651 a 9.8158369,9.8158369 0 0 1 7.36556,-3.327452 9.8158369,9.8158369 0 0 1 9.81584,9.815836 v 0 a 9.8158369,9.8158369 0 0 1 -9.81584,9.815842 9.8158369,9.8158369 0 0 1 -9.81583,-9.815842 9.8158369,9.8158369 0 0 1 2.45027,-6.488384"
         clip-path="url(#clipPath6893)"
         inkscape:path-effect="#path-effect3196;#path-effect6897"
         inkscape:original-d="m 81.851024,74.675651 a 9.8158369,9.8158369 0 0 1 7.36556,-3.327452 9.8158369,9.8158369 0 0 1 9.81584,9.815836 v 0 a 9.8158369,9.8158369 0 0 1 -9.81584,9.815842 9.8158369,9.8158369 0 0 1 -9.81583,-9.815842 9.8158369,9.8158369 0 0 1 2.45027,-6.488384" />
      <path
         id="path4937-2"
         style="fill:none;fill-opacity:1;stroke:#e9203e;stroke-width:1.88976;stroke-linejoin:round;stroke-miterlimit:4;stroke-dasharray:none;stroke-opacity:1"
         d="m 106.45329,91.795666 c -2.81687,0.0024 -5.73531,1.486476 -6.597654,5.156249 -2.196058,9.345495 -4.175781,12.150395 -4.175781,12.150395 0,0 2.924579,-1.80089 12.220705,-3.96875 0.91822,-0.21413 1.69815,-0.5575 2.35937,-0.99219 a 9.8158369,9.8158369 0 0 0 9.7168,8.44922 9.8158369,9.8158369 0 0 0 9.8164,-9.81446 9.8158369,9.8158369 0 0 0 -9.8164,-9.816402 9.8158369,9.8158369 0 0 0 -7.16992,3.138672 c -0.29953,-0.958893 -0.77884,-1.813064 -1.40625,-2.451172 -1.14017,-1.159619 -3.01993,-1.853194 -4.94727,-1.851562 z" />
    </g>
  </g>
  <g
     style="display:inline"
     transform="translate(-17.810717,-21.151137)"
     inkscape:groupmode="layer"
     id="layer3"
     inkscape:label="Face">
    <g
       inkscape:groupmode="layer"
       id="layer9"
       inkscape:label="Vibing"
       style="display:inline">
      <path
         style="display:inline;fill:none;stroke:#e9203e;stroke-width:3.99874001;stroke-linecap:square;stroke-linejoin:miter;stroke-miterlimit:4;stroke-dasharray:none;stroke-opacity:1"
         d="M 89.705296,47.41972 106.54368,74.873341"
         id="path2772" />
      <path
         style="display:inline;fill:none;stroke:#e9203e;stroke-width:3.99874001;stroke-linecap:square;stroke-linejoin:miter;stroke-miterlimit:4;stroke-dasharray:none;stroke-opacity:1"
         d="M 70.281772,56.64848 87.503396,83.479397"
         id="path2770" />
      <path
         style="display:inline;fill:none;stroke:#e9203e;stroke-width:3.99874001;stroke-linecap:square;stroke-linejoin:miter;stroke-miterlimit:4;stroke-dasharray:none;stroke-opacity:1"
         d="M 110.87505,85.346087 H 94.469416"
         id="path2905" />
    </g>
  </g>
</svg>
