<svg width="127.125" height="121.74" xmlns:xlink="http://www.w3.org/1999/xlink" xmlns="http://www.w3.org/2000/svg"><defs><linearGradient id="prefix__a"><stop offset="0" stop-color="#ffbe00"/><stop offset="1" stop-color="#ff4b80"/></linearGradient><linearGradient xlink:href="#prefix__a" id="prefix__b" x1="156.057" y1="126.622" x2="69.375" y2="35.396" gradientUnits="userSpaceOnUse" gradientTransform="translate(-14.28 -3.925)"/></defs><path d="M99.807 31.285c-10.005.055-88.197 28.105-53.59 42.709m38.157-51.877C64.852 23.48 22.802 44.47 19.067 61.554c-5.098 23.317 53.138 33.52 56.63 39.121 5.451 8.74-9.642 24.193 2.877 26.448 15.865 1.858.222-20.708 6.904-20.69 8.265.336 9.73 16.516 7.256 23.11-6.129 15.569 15.324 16.047 13.409 3.864-2.064-8.215-9.099-24.345 1.735-20.822 8.556 2.782 22.834 13.24 30.445 11.594 7.35-1.588 6.44-8.271 3.467-13.759-26.667-46.41-37.787-89.426-57.416-88.303z" fill="url(#prefix__b)" stroke="#000" stroke-width="1.89" stroke-linecap="round" transform="translate(-17.81 -21.151)"/><g transform="translate(-44.782 -38.67)" fill="red"><circle cx="120.339" cy="66.782" r="9.816"/><circle cy="80.315" cx="87.989" r="9.816"/><circle r="9.816" cy="98.771" cx="116.541"/><circle r="9.816" cy="120.382" cx="147.302"/></g><path d="M43.02 49.455c6.658.065 8.313 7.525 6.038 11.053-2.276 3.528-9.662 5.054-12.56-.94-4.355-9.014-6.87-11.59-6.87-11.59s3.325 1.38 13.392 1.477zM87.47 43.928c-5.144-1.623-4.665-7.795-2.069-9.992 2.597-2.198 8.683-1.636 9.512 3.694 1.248 8.015 2.588 10.606 2.588 10.606s-2.251-1.855-10.03-4.308zM79.144 74.302c1.453-6.181 8.739-6.16 11.545-3.306 2.807 2.854 2.683 10.045-3.5 11.487-9.296 2.168-12.22 3.97-12.22 3.97s1.98-2.806 4.175-12.151z" fill="#a5b25b"/><g><g fill="none" stroke="#000" stroke-linecap="round"><path d="M71.895 26.269l16.838 27.453M52.471 35.497l17.222 26.831" stroke-width="3.402"/><path d="M93.064 64.195H76.66" stroke-width="2.646"/></g></g></svg>