<?xml version="1.0" encoding="UTF-8" standalone="no"?>
<svg
   xmlns:dc="http://purl.org/dc/elements/1.1/"
   xmlns:cc="http://creativecommons.org/ns#"
   xmlns:rdf="http://www.w3.org/1999/02/22-rdf-syntax-ns#"
   xmlns:svg="http://www.w3.org/2000/svg"
   xmlns="http://www.w3.org/2000/svg"
   xmlns:sodipodi="http://sodipodi.sourceforge.net/DTD/sodipodi-0.dtd"
   xmlns:inkscape="http://www.inkscape.org/namespaces/inkscape"
   width="53.999928"
   height="53.999928"
   version="1.1"
   viewBox="0 0 14.2872 14.2872"
   id="svg20"
   sodipodi:docname="github.svg"
   inkscape:version="1.0.1 (3bc2e813f5, 2020-09-07)">
  <metadata
     id="metadata26">
    <rdf:RDF>
      <cc:Work
         rdf:about="">
        <dc:format>image/svg+xml</dc:format>
        <dc:type
           rdf:resource="http://purl.org/dc/dcmitype/StillImage" />
      </cc:Work>
    </rdf:RDF>
  </metadata>
  <defs
     id="defs24" />
  <sodipodi:namedview
     pagecolor="#ffffff"
     bordercolor="#666666"
     borderopacity="1"
     objecttolerance="10"
     gridtolerance="10"
     guidetolerance="10"
     inkscape:pageopacity="0"
     inkscape:pageshadow="2"
     inkscape:window-width="1920"
     inkscape:window-height="1050"
     id="namedview22"
     showgrid="false"
     inkscape:zoom="13"
     inkscape:cx="26.999963"
     inkscape:cy="27.024532"
     inkscape:window-x="0"
     inkscape:window-y="0"
     inkscape:window-maximized="1"
     inkscape:current-layer="svg20" />
  <circle
     cx="7.1436"
     cy="7.1436"
     r="7.1436"
     fill="#eeeeee"
     style="paint-order:stroke markers fill"
     id="circle16" />
  <path
     d="m 7.1423997,2.6247999 c -2.5729,0 -4.6589,2.0859 -4.6589,4.6589 9.32e-4,1.9766 1.2517,3.7364001 3.1183,4.3918001 0.16648,-0.0066 0.2991,-0.14008 0.2991,-0.30811 v -0.66622 h -0.31059 c -0.45968,0 -1.0076,-0.12206 -1.1775,-0.62118 -0.22642,-0.6656001 -0.87276,-0.8283501 -0.6861,-0.9317801 0.03914,-0.02174 0.07951,-0.0351 0.12082,-0.04131 0.03603,-0.0056 0.07299,-0.0053 0.10995,-6.21e-4 0.25841,0.03231 0.53018,0.29196 0.70132,0.50782 0.30562,0.38576 0.47521,0.4658901 0.80568,0.4658901 0.3137,0 0.43669,-0.07766 0.43669,-0.07766 0,-0.2966201 0.13542,-0.5242801 0.34507,-0.6708801 -1.1905,-0.18635 -2.0533,-0.79201 -2.0533,-2.0468 0,-0.60162 0.16648,-1.0858 0.45005,-1.4632 -0.12734,-0.43793 -0.11336,-0.88239 0.01584,-1.3321 0.43576,0 0.92463,0.23698 1.2358,0.49136 0.37985,-0.1202 0.80195,-0.18076 1.2486,-0.18076 0.4457,0 0.86872,0.060255 1.2517,0.17952 0.31059,-0.25375 0.79884,-0.49011 1.234,-0.49011 0.12703,0.44197 0.14101,0.87897 0.0205,1.3098 0.2991,0.38047 0.4761403,0.87183 0.4761403,1.4856 0,1.2548 -0.8839403,1.8614 -2.0838003,2.0474 0.20934,0.1466 0.34445,0.37395 0.34445,0.6702601 v 1.3651 c 0,0.16803 0.13262,0.30158 0.2991,0.30811 1.8667003,-0.65411 3.1152003,-2.4139001 3.1183003,-4.3918001 0.0013,-2.5729 -2.0859003,-4.6589 -4.6589003,-4.6589 z"
     fill="#333333"
     id="path18" />
</svg>
