<?xml version="1.0" encoding="UTF-8" standalone="no"?>
<svg
   xmlns:dc="http://purl.org/dc/elements/1.1/"
   xmlns:cc="http://creativecommons.org/ns#"
   xmlns:rdf="http://www.w3.org/1999/02/22-rdf-syntax-ns#"
   xmlns:svg="http://www.w3.org/2000/svg"
   xmlns="http://www.w3.org/2000/svg"
   xmlns:sodipodi="http://sodipodi.sourceforge.net/DTD/sodipodi-0.dtd"
   xmlns:inkscape="http://www.inkscape.org/namespaces/inkscape"
   width="53.997055"
   height="53.999928"
   version="1.1"
   viewBox="0 0 14.28644 14.2872"
   id="svg36"
   sodipodi:docname="gmail.svg"
   inkscape:version="1.0.1 (3bc2e813f5, 2020-09-07)">
  <metadata
     id="metadata42">
    <rdf:RDF>
      <cc:Work
         rdf:about="">
        <dc:format>image/svg+xml</dc:format>
        <dc:type
           rdf:resource="http://purl.org/dc/dcmitype/StillImage" />
      </cc:Work>
    </rdf:RDF>
  </metadata>
  <defs
     id="defs40" />
  <sodipodi:namedview
     pagecolor="#ffffff"
     bordercolor="#666666"
     borderopacity="1"
     objecttolerance="10"
     gridtolerance="10"
     guidetolerance="10"
     inkscape:pageopacity="0"
     inkscape:pageshadow="2"
     inkscape:window-width="1920"
     inkscape:window-height="1050"
     id="namedview38"
     showgrid="false"
     inkscape:zoom="13"
     inkscape:cx="27.000116"
     inkscape:cy="26.999965"
     inkscape:window-x="0"
     inkscape:window-y="0"
     inkscape:window-maximized="1"
     inkscape:current-layer="svg36" />
  <path
     d="M 7.1437,0 A 7.14366,7.14366 0 0 0 0.32097554,5.02702 H 13.958752 A 7.14366,7.14366 0 0 0 7.1437,0 Z"
     fill="#cc4d44"
     stroke-width="1.00001"
     style="paint-order:stroke fill markers"
     id="path28" />
  <circle
     cx="7.1436405"
     cy="7.1436005"
     r="6.3498998"
     fill="#ffffff"
     stroke-width="0.88889"
     style="paint-order:stroke fill markers"
     id="circle30" />
  <path
     d="m 13.54314,3.978 -11.464,8.1993 a 7.1436,7.1436 0 0 0 5.0637,2.1099 7.1436,7.1436 0 0 0 7.1436,-7.1436 7.1436,7.1436 0 0 0 -0.74361,-3.1656 z"
     fill="#f4685c"
     style="paint-order:markers stroke fill"
     id="path32" />
  <path
     d="M 0.74774,3.9811 A 7.1436,7.1436 0 0 0 0,7.1436 a 7.1436,7.1436 0 0 0 7.1436,7.1436 7.1436,7.1436 0 0 0 5.0621,-2.1109 z"
     fill="#ff7a6e"
     style="paint-order:markers stroke fill"
     id="path34" />
</svg>
