<?xml version="1.0" encoding="UTF-8" standalone="no"?>
<svg
   height="235.44902"
   width="261.7294"
   viewBox="0 0 245.37201 220.73333"
   version="1.1"
   id="svg459"
   sodipodi:docname="itch.svg"
   inkscape:version="1.2.2 (732a01da63, 2022-12-09)"
   xmlns:inkscape="http://www.inkscape.org/namespaces/inkscape"
   xmlns:sodipodi="http://sodipodi.sourceforge.net/DTD/sodipodi-0.dtd"
   xmlns="http://www.w3.org/2000/svg"
   xmlns:svg="http://www.w3.org/2000/svg">
  <defs
     id="defs463" />
  <sodipodi:namedview
     id="namedview461"
     pagecolor="#a8a8a8"
     bordercolor="#666666"
     borderopacity="1.0"
     inkscape:showpageshadow="2"
     inkscape:pageopacity="0"
     inkscape:pagecheckerboard="0"
     inkscape:deskcolor="#d1d1d1"
     showgrid="false"
     inkscape:zoom="1.7710616"
     inkscape:cx="142.85217"
     inkscape:cy="124.21928"
     inkscape:window-width="2160"
     inkscape:window-height="1316"
     inkscape:window-x="-12"
     inkscape:window-y="-12"
     inkscape:window-maximized="1"
     inkscape:current-layer="svg459" />
  <path
     d="M 31.99,1.3646743 C 21.287,7.7196743 0.2,31.944674 0,38.297674 v 10.516 c 0,13.33 12.46,25.046 23.773,25.046 13.584,0 24.902,-11.258 24.903,-24.62 0,13.362 10.93,24.62 24.515,24.62 13.586,0 24.165,-11.258 24.165,-24.62 0,13.362 11.622,24.62 25.207,24.62 h 0.246 c 13.586,0 25.208,-11.258 25.208,-24.62 0,13.362 10.58,24.62 24.164,24.62 13.585,0 24.51499,-11.258 24.51499,-24.62 0,13.362 11.32,24.62 24.903,24.62 11.313,0 23.773,-11.714 23.773,-25.046 v -10.516 C 245.172,31.943674 224.085,7.7176743 213.384,1.3646743 180.118,0.19667429 157.056,-0.00532571 122.685,-3.2571481e-4 88.315,0.00267429 41.457,0.53967429 31.988,1.3646743 Z M 97.184,67.581674 a 28.025,28.025 0 0 1 -4.78,6.155 c -5.128,5.014 -12.157,8.122 -19.906,8.122 a 28.482,28.482 0 0 1 -19.948,-8.126 c -1.858,-1.82 -3.27,-3.766 -4.563,-6.032 l -0.006,0.004 c -1.292,2.27 -3.092,4.215 -4.954,6.037 a 28.5,28.5 0 0 1 -19.948,8.12 c -0.934,0 -1.906,-0.258 -2.692,-0.528 -1.092,11.371995 -1.553,22.239996 -1.716,30.163996 l -0.002,0.045 c -0.02,4.024 -0.04,7.333 -0.06,11.93 0.21,23.86 -2.363,77.334 10.52,90.473 19.964,4.655 56.7,6.775 93.555,6.788 h 0.006 c 36.854,-0.013 73.59,-2.133 93.554,-6.788 12.883,-13.14 10.31,-66.614 10.52,-90.474 -0.022,-4.596 -0.04,-7.905 -0.06,-11.93 l -0.003,-0.045 c -0.162,-7.926 -0.62299,-18.793001 -1.715,-30.164996 -0.786,0.27 -1.757,0.528 -2.692,0.528 a 28.5,28.5 0 0 1 -19.948,-8.12 c -1.862,-1.822 -3.662,-3.766 -4.955,-6.037 l -0.006,-0.004 c -1.294,2.266 -2.70501,4.213 -4.563,6.032 a 28.48,28.48 0 0 1 -19.947,8.125 c -7.748,0 -14.778,-3.11 -19.906,-8.123 a 28.025,28.025 0 0 1 -4.78,-6.155 27.99,27.99 0 0 1 -4.736,6.155 28.49,28.49 0 0 1 -19.95,8.124 c -0.27,0 -0.54,-0.012 -0.81,-0.02 h -0.007 c -0.27,0.008 -0.54,0.02 -0.813,0.02 a 28.49,28.49 0 0 1 -19.95,-8.123 27.992,27.992 0 0 1 -4.736,-6.155 z m -20.486,26.489995 -0.002,0.01 h 0.015 c 8.113,0.017 15.32,0 24.25001,9.746001 7.028,-0.737 14.372,-1.105 21.722,-1.094 h 0.006 c 7.34999,-0.01 14.69399,0.357 21.72299,1.094 8.93001,-9.747001 16.137,-9.730001 24.25,-9.746001 h 0.014 l -0.002,-0.01 c 3.833,0 19.166,0 29.85,30.007001 l 11.47601,41.165 c 8.50399,30.624 -2.72301,31.373 -16.72701,31.4 -20.768,-0.773 -32.26699,-15.855 -32.26699,-30.935 -11.49601,1.884 -24.90701,2.826 -38.318,2.827 h -0.006 c -13.412,0 -26.82301,-0.943 -38.31801,-2.827 0,15.08 -11.5,30.162 -32.267,30.935 -14.004,-0.027 -25.23,-0.775 -16.726,-31.4 l 11.479,-41.164 C 57.534,94.072669 72.867,94.072669 76.7,94.072669 Z m 45.985,23.582001 v 0.006 c -0.02,0.02 -21.863,20.08 -25.79,27.215 l 14.30401,-0.573 v 12.474 c 0,0.584 5.74,0.346 11.486,0.08 h 0.006 c 5.74399,0.266 11.485,0.504 11.485,-0.08 v -12.474 l 14.304,0.573 c -3.928,-7.135 -25.79,-27.215 -25.79,-27.215 v -0.006 l -0.003,0.002 z"
     color="#000000"
     fill="#ffffff"
     id="path457" />
</svg>
