<?xml version="1.0" encoding="UTF-8" standalone="no"?>
<!-- Generator: Adobe Illustrator 21.0.0, SVG Export Plug-In . SVG Version: 6.00 Build 0)  -->

<svg
   version="1.1"
   id="Layer_1"
   x="0px"
   y="0px"
   viewBox="0 0 32.510593 14.1"
   xml:space="preserve"
   sodipodi:docname="soundcloud.svg"
   width="32.510593"
   height="14.1"
   inkscape:version="1.2.2 (732a01da63, 2022-12-09)"
   xmlns:inkscape="http://www.inkscape.org/namespaces/inkscape"
   xmlns:sodipodi="http://sodipodi.sourceforge.net/DTD/sodipodi-0.dtd"
   xmlns:xlink="http://www.w3.org/1999/xlink"
   xmlns="http://www.w3.org/2000/svg"
   xmlns:svg="http://www.w3.org/2000/svg"><defs
   id="defs151">
	<defs
   id="defs132">
		<path
   id="SVGID_1_"
   d="M 0.2,8.5 0,10.3 0.2,12.1 c 0,0.1 0.1,0.1 0.1,0.1 0.1,0 0.1,-0.1 0.1,-0.1 L 0.7,10.3 0.4,8.5 C 0.4,8.4 0.3,8.4 0.3,8.4 c 0,0 -0.1,0 -0.1,0.1 m 1.2,-1.1 -0.3,2.9 0.3,2.9 c 0,0.1 0.1,0.1 0.1,0.1 0.1,0 0.1,-0.1 0.1,-0.1 L 2,10.3 1.6,7.4 C 1.6,7.3 1.5,7.3 1.5,7.3 c 0,0 0,0 0,0 0,0 -0.1,0.1 -0.1,0.1 M 5.2,7 5,10.3 5.2,13.8 c 0,0.1 0.1,0.2 0.2,0.2 0.1,0 0.2,-0.1 0.2,-0.2 L 6,10.3 5.7,7 C 5.7,6.9 5.6,6.8 5.5,6.8 5.3,6.8 5.2,6.9 5.2,7 M 2.7,6.8 2.4,10.3 2.7,13.6 c 0,0.1 0.1,0.2 0.2,0.2 0,0 0.1,-0.1 0.1,-0.2 L 3.3,10.3 3,6.8 C 3,6.7 2.9,6.6 2.8,6.6 2.8,6.7 2.7,6.7 2.7,6.8 m 1.2,-0.1 -0.3,3.6 0.3,3.4 c 0,0.1 0.1,0.2 0.2,0.2 0.1,0 0.2,-0.1 0.2,-0.2 L 4.6,10.3 4.3,6.7 C 4.3,6.6 4.2,6.5 4.1,6.5 4,6.5 4,6.6 3.9,6.7 M 6.5,4.9 6.2,10.3 6.5,13.8 C 6.5,13.9 6.6,14 6.7,14 6.9,14 7,13.9 7,13.8 L 7.3,10.3 7,4.9 C 7,4.8 6.9,4.7 6.8,4.7 6.6,4.7 6.5,4.8 6.5,4.9 m 1.3,-1.2 -0.2,6.6 0.2,3.5 c 0,0.2 0.1,0.3 0.3,0.3 0.1,0 0.3,-0.1 0.3,-0.3 L 8.7,10.3 8.4,3.7 C 8.4,3.5 8.3,3.4 8.1,3.4 7.9,3.4 7.8,3.5 7.8,3.7 M 69.5,3.3 v 3.8 2 C 69.4,8.9 69.1,8.4 68.9,8.1 L 65.7,3.3 H 64 v 9.1 h 1.8 v -4 -2 c 0.1,0.2 0.4,0.7 0.6,1 l 3.3,5 h 1.6 V 3.3 Z m 6,1.8 h 1 c 1.9,0 2.7,0.9 2.7,2.8 0,1.7 -0.9,2.8 -2.8,2.8 h -0.9 z m -1.8,7.3 h 2.7 c 2.3,0 4.7,-1.3 4.7,-4.5 0,-3.3 -1.9,-4.5 -4.5,-4.5 H 73.7 V 3.3 Z M 91.6,3.3 v 9.1 h 5.5 V 10.6 H 93.5 V 3.3 Z M 119,5.1 h 1 c 1.9,0 2.7,0.9 2.7,2.8 0,1.7 -0.9,2.8 -2.8,2.8 H 119 Z m -1.8,7.3 h 2.7 c 2,0 4.1,-1 4.6,-3.4 V 6.7 c -0.4,-2.4 -2.1,-3.3 -4.4,-3.3 h -2.9 V 3.3 Z M 36.5,5.9 c 0,1.8 1.2,2.3 2.8,2.7 1.7,0.4 2,0.6 2,1.2 0,0.7 -0.5,1 -1.6,1 -0.9,0 -1.7,-0.3 -2.3,-1 L 36.1,11 c 0.7,1 2,1.7 3.5,1.7 2.5,0 3.6,-1.2 3.6,-2.9 0,-2 -1.6,-2.5 -3,-2.8 -1.4,-0.3 -1.8,-0.5 -1.8,-1.1 0,-0.4 0.3,-0.8 1.3,-0.8 0.8,0 1.5,0.3 2.1,0.9 L 43.1,4.7 C 42.2,3.8 41.2,3.3 39.8,3.3 c -0.1,0 -0.2,0 -0.3,0 -1.7,0 -3,1 -3,2.6 m 10,2 c 0,-1.6 0.6,-2.9 2.1,-2.9 1.5,0 2.1,1.3 2.1,2.9 0,1.6 -0.6,2.9 -2.1,2.9 -1.5,0 -2.1,-1.3 -2.1,-2.9 m -1.9,0 c 0,2.8 1.5,4.7 3.9,4.7 2.5,0 4,-1.9 4,-4.7 0,-2.8 -1.5,-4.7 -4,-4.7 -2.4,0 -3.9,1.9 -3.9,4.7 M 59.9,3.2 v 0 5.2 c 0,1.5 -0.7,2.4 -1.9,2.4 -1.2,0 -1.9,-0.9 -1.9,-2.4 V 3.3 h -1.8 v 5.1 c 0,2.6 1.5,4.1 3.7,4.1 2.3,0 3.7,-1.5 3.7,-4.2 V 3.2 Z m 22.7,4.7 c 0,2.9 1.6,4.7 4,4.7 1.7,0 2.7,-0.8 3.4,-2.1 L 88.5,9.6 c -0.5,0.8 -1,1.2 -1.8,1.2 -1.4,0 -2.2,-1.2 -2.2,-2.9 0,-1.7 0.8,-2.9 2.1,-2.9 0.8,0 1.3,0.4 1.7,1 L 90,5.2 c -0.6,-1.2 -1.6,-2 -3.3,-2 -2.4,0 -4.1,1.9 -4.1,4.7 m 17.2,0 c 0,-1.6 0.6,-2.9 2.1,-2.9 1.5,0 2.1,1.3 2.1,2.9 0,1.6 -0.6,2.9 -2.1,2.9 -1.5,0 -2.1,-1.3 -2.1,-2.9 m -1.9,0 c 0,2.8 1.5,4.7 3.9,4.7 2.5,0 3.9,-1.9 3.9,-4.7 0,-2.8 -1.5,-4.7 -3.9,-4.7 -2.4,0 -3.9,1.9 -3.9,4.7 m 15.2,-4.7 v 0 5.2 c 0,1.5 -0.7,2.4 -1.9,2.4 -1.2,0 -1.9,-0.9 -1.9,-2.4 V 3.3 h -1.8 v 5.1 c 0,2.6 1.5,4.1 3.7,4.1 2.3,0 3.7,-1.5 3.7,-4.2 V 3.2 Z m -100,0.2 -0.2,6.9 0.2,3.3 c 0,0.2 0.2,0.4 0.4,0.4 0.2,0 0.4,-0.2 0.4,-0.4 l 0.2,-3.3 -0.2,-7 C 13.9,3.1 13.7,2.9 13.5,2.9 13.2,3 13.1,3.1 13.1,3.4 m -4,-0.3 -0.2,7.2 0.2,3.4 c 0,0.2 0.1,0.3 0.3,0.3 0.2,0 0.3,-0.1 0.3,-0.3 L 9.9,10.3 9.7,3.1 C 9.7,2.9 9.6,2.8 9.4,2.8 9.2,2.8 9.1,3 9.1,3.1 m 2.6,0 -0.2,7.2 0.2,3.4 c 0,0.2 0.2,0.4 0.4,0.4 0.2,0 0.4,-0.2 0.4,-0.4 l 0.2,-3.4 -0.2,-7.2 c 0,-0.2 -0.2,-0.4 -0.4,-0.4 -0.2,0 -0.4,0.2 -0.4,0.4 m -1.3,-0.2 -0.2,7.4 0.2,3.4 c 0,0.2 0.1,0.3 0.3,0.3 0.2,0 0.3,-0.1 0.3,-0.3 L 11.2,10.3 11,2.9 c 0,-0.2 -0.2,-0.3 -0.3,-0.3 -0.1,0 -0.3,0.1 -0.3,0.3 m 4,-0.9 -0.2,8.3 0.2,3.3 c 0,0.2 0.2,0.4 0.4,0.4 0.2,0 0.4,-0.2 0.4,-0.4 L 15.4,10.3 15.2,2 C 15.2,1.8 15,1.6 14.8,1.6 14.6,1.6 14.4,1.8 14.4,2 m 1.4,-0.7 -0.2,9 0.2,3.3 c 0,0.2 0.2,0.4 0.4,0.4 0.2,0 0.4,-0.2 0.4,-0.4 l 0.2,-3.3 -0.2,-9 c 0,-0.2 -0.2,-0.4 -0.4,-0.4 0,0 -0.1,0 -0.1,0 -0.2,0 -0.3,0.2 -0.3,0.4 M 17.4,0.4 C 17.1,0.5 17,0.6 17,0.9 v 12.7 c 0,0.2 0.2,0.4 0.4,0.5 h 11.1 c 2.2,0 4,-1.8 4,-4 0,-2.2 -1.8,-4 -4,-4 C 28,6.1 27.4,6.2 27,6.4 26.7,2.8 23.7,0 20,0 19.8,0 19.7,0 19.5,0 18.8,0 18.1,0.2 17.4,0.4" />
	</defs>
	<clipPath
   id="SVGID_2_">
		<use
   xlink:href="#SVGID_1_"
   style="overflow:visible"
   id="use134" />
	</clipPath>
	
		<linearGradient
   id="SVGID_3_"
   gradientUnits="userSpaceOnUse"
   x1="0"
   y1="14.126"
   x2="1"
   y2="14.126"
   gradientTransform="matrix(0,62.1556,-62.1556,0,940.2602,-35.9781)">
		<stop
   offset="0"
   style="stop-color:#F8A01D"
   id="stop137" />
		<stop
   offset="0.7128"
   style="stop-color:#F26E23"
   id="stop139" />
		<stop
   offset="1"
   style="stop-color:#EF5826"
   id="stop141" />
	</linearGradient>
	
</defs><sodipodi:namedview
   id="namedview149"
   pagecolor="#999999"
   bordercolor="#666666"
   borderopacity="1.0"
   inkscape:showpageshadow="2"
   inkscape:pageopacity="0"
   inkscape:pagecheckerboard="0"
   inkscape:deskcolor="#d1d1d1"
   showgrid="false"
   inkscape:zoom="9.4394496"
   inkscape:cx="27.014287"
   inkscape:cy="1.9068908"
   inkscape:window-width="2160"
   inkscape:window-height="1316"
   inkscape:window-x="-12"
   inkscape:window-y="-12"
   inkscape:window-maximized="1"
   inkscape:current-layer="Layer_1" />
<style
   type="text/css"
   id="style129">
	.st0{clip-path:url(#SVGID_2_);fill:url(#SVGID_3_);}
</style>
<rect
   x="0"
   y="0"
   class="st0"
   width="32.510593"
   height="14.181667"
   clip-path="url(#SVGID_2_)"
   id="rect144"
   style="fill:#ffffff;fill-opacity:1" />
</svg>
