<?xml version="1.0" encoding="UTF-8" standalone="no"?>
<!-- Created with Inkscape (http://www.inkscape.org/) -->

<svg
   version="1.1"
   id="svg2"
   xml:space="preserve"
   width="161.98"
   height="161.98"
   viewBox="0 0 161.98 161.97999"
   sodipodi:docname="youtube.svg"
   inkscape:version="1.2.1 (9c6d41e410, 2022-07-14, custom)"
   xmlns:inkscape="http://www.inkscape.org/namespaces/inkscape"
   xmlns:sodipodi="http://sodipodi.sourceforge.net/DTD/sodipodi-0.dtd"
   xmlns="http://www.w3.org/2000/svg"
   xmlns:svg="http://www.w3.org/2000/svg"><defs
     id="defs6"><clipPath
       clipPathUnits="userSpaceOnUse"
       id="clipPath16"><path
         d="M 0,255.118 H 550.024 V 0 H 0 Z"
         id="path14" /></clipPath></defs><sodipodi:namedview
     id="namedview4"
     pagecolor="#505050"
     bordercolor="#eeeeee"
     borderopacity="1"
     inkscape:pageshadow="0"
     inkscape:pageopacity="0"
     inkscape:pagecheckerboard="0"
     showgrid="false"
     inkscape:zoom="1.7781042"
     inkscape:cx="73.955171"
     inkscape:cy="101.79381"
     inkscape:current-layer="g8"
     inkscape:showpageshadow="2"
     inkscape:deskcolor="#505050"
     inkscape:window-width="1362"
     inkscape:window-height="764"
     inkscape:window-x="1920"
     inkscape:window-y="156"
     inkscape:window-maximized="1" /><g
     id="g8"
     inkscape:groupmode="layer"
     inkscape:label="yt_logo_mono_dark"
     transform="matrix(1.3333333,0,0,-1.3333333,-112.73266,226.77199)"><path
       d="M 133.1435,91.113497 V 127.5595 l 31.562,-18.223 z m 70.353,47.464003 c -1.398,5.226 -5.514,9.343 -10.741,10.74 -9.474,2.539 -47.464,2.539 -47.464,2.539 0,0 -37.989,0 -47.463003,-2.539 -5.227,-1.397 -9.343,-5.514 -10.74,-10.74 -2.539,-9.474 -2.539,-29.241 -2.539,-29.241 0,0 0,-19.767003 2.539,-29.241003 1.397,-5.226 5.513,-9.343 10.74,-10.74 9.474003,-2.539 47.463003,-2.539 47.463003,-2.539 0,0 37.99,0 47.464,2.539 5.227,1.397 9.343,5.514 10.741,10.74 2.538,9.474 2.538,29.241003 2.538,29.241003 0,0 0,19.767 -2.538,29.241"
       style="fill:#ffffff;fill-opacity:1;fill-rule:nonzero;stroke:none"
       id="path20" /></g></svg>
