<?xml version="1.0" encoding="UTF-8" standalone="no"?>
<svg
   xmlns:dc="http://purl.org/dc/elements/1.1/"
   xmlns:cc="http://creativecommons.org/ns#"
   xmlns:rdf="http://www.w3.org/1999/02/22-rdf-syntax-ns#"
   xmlns:svg="http://www.w3.org/2000/svg"
   xmlns="http://www.w3.org/2000/svg"
   xmlns:sodipodi="http://sodipodi.sourceforge.net/DTD/sodipodi-0.dtd"
   xmlns:inkscape="http://www.inkscape.org/namespaces/inkscape"
   width="53.999928"
   height="53.999928"
   version="1.1"
   viewBox="0 0 14.2872 14.2872"
   id="svg48"
   sodipodi:docname="youtube.svg"
   inkscape:version="1.0.1 (3bc2e813f5, 2020-09-07)">
  <metadata
     id="metadata54">
    <rdf:RDF>
      <cc:Work
         rdf:about="">
        <dc:format>image/svg+xml</dc:format>
        <dc:type
           rdf:resource="http://purl.org/dc/dcmitype/StillImage" />
      </cc:Work>
    </rdf:RDF>
  </metadata>
  <defs
     id="defs52" />
  <sodipodi:namedview
     pagecolor="#ffffff"
     bordercolor="#666666"
     borderopacity="1"
     objecttolerance="10"
     gridtolerance="10"
     guidetolerance="10"
     inkscape:pageopacity="0"
     inkscape:pageshadow="2"
     inkscape:window-width="1920"
     inkscape:window-height="1050"
     id="namedview50"
     showgrid="false"
     inkscape:zoom="9.1923882"
     inkscape:cx="24.450957"
     inkscape:cy="29.063737"
     inkscape:window-x="0"
     inkscape:window-y="0"
     inkscape:window-maximized="1"
     inkscape:current-layer="svg48" />
  <circle
     cx="7.1436"
     cy="7.1436"
     r="7.1436"
     fill="#e82e34"
     style="paint-order:stroke markers fill"
     id="circle44" />
  <path
     d="m 10.8021,5.7445999 c -0.04142,-0.49552 -0.33688,-1.1204 -0.9440703,-1.1427 -1.6955,-0.114 -3.7041,-0.14517 -5.4304,0 -0.53555,0.060023 -0.90266,0.71235 -0.94267,1.2079 -0.084673,1.0408 -0.084673,1.6332 0,2.674 0.040481,0.49552 0.39829,1.1516 0.9436,1.2204 1.7467,0.114 3.7456,0.13028 5.4304,0 0.5285703,-0.09166 0.9031203,-0.72492 0.9436003,-1.2204 0.08421,-1.0413 0.08421,-1.6983 -4.58e-4,-2.7391 z m -4.5896003,2.7224 v -2.6684 l 2.3264,1.3344 z"
     fill="#ffffff"
     stroke-width="0.019239"
     id="path46" />
</svg>
